<?xml version="1.0" encoding="utf-8"?>
<!-- Generator: Adobe Illustrator 23.0.1, SVG Export Plug-In . SVG Version: 6.00 Build 0)  -->
<svg version="1.1" id="Слой_1" xmlns="http://www.w3.org/2000/svg" xmlns:xlink="http://www.w3.org/1999/xlink" x="0px" y="0px"
	 viewBox="0 0 520 520" style="enable-background:new 0 0 520 520;" xml:space="preserve">
<style type="text/css">
	.st0{fill:#FDF9F1;}
	.st1{fill:#101010;}
</style>
<rect class="st0" width="520" height="520"/>
<path class="st1" d="M355,435H165c-44.1,0-80-35.9-80-80V165c0-44.1,35.9-80,80-80h190c44.1,0,80,35.9,80,80v190
	C435,399.1,399.1,435,355,435z M165,105c-33.1,0-60,26.9-60,60v190c0,33.1,26.9,60,60,60h190c33.1,0,60-26.9,60-60V165
	c0-33.1-26.9-60-60-60H165z"/>
<path class="st1" d="M184.9,169.3c18,0,32.2,3.8,42.5,11.2c10.5,7.3,15.8,18.8,15.8,34.2c0,9.7-2.2,18-6.5,25s-10.3,12.5-18,16.5
	c10,3.8,18.1,9.4,24.2,16.8c6.2,7.3,9.2,16.1,9.2,26.2c0,12-2.9,21.8-8.8,29.2c-5.7,7.5-13.1,13-22.2,16.5c-9.2,3.3-18.9,5-29.3,5
	h-53.6V169.3H184.9z M189.9,248.2c9.8,0,17-2.8,21.5-8.2c4.5-5.7,6.8-12.4,6.8-20.2c0-9.5-2.9-16.4-8.8-20.7s-13.7-6.5-23.5-6.5
	h-23.5v55.7h27.5V248.2z M190.9,327.5c10,0,18.5-2.2,25.5-6.8c7.2-4.7,10.8-11.8,10.8-21.2c0-7-1.9-12.5-5.8-16.5
	c-3.8-4-8.7-6.8-14.5-8.5c-5.7-1.8-11.6-2.8-17.8-2.8h-26.7v55.8H190.9z M335.2,352.5c-11.7,0-21.8-2.3-30.5-7
	c-8.5-4.8-15.1-11.4-19.8-19.8c-4.5-8.3-6.8-17.8-6.8-28.2c0-10.2,2.5-19.4,7.5-27.8c5.2-8.5,12.1-15.2,20.8-20
	c8.8-5,18.6-7.5,29.2-7.5c13.7,0,25,4,34,12c9,8,15.2,19,18.5,33l-82,28.8c2.8,5.2,6.8,9.2,12,12.2c5.2,2.8,11,4.2,17.5,4.2
	c4.7,0,9.1-0.8,13.2-2.5c4.2-1.7,8.2-3.8,12-6.5l10.8,17.2c-5.3,3.5-11.2,6.3-17.8,8.5C347.6,351.4,341.4,352.5,335.2,352.5z
	 M301.2,296.2c-0.2,2-0.1,3.9,0.2,5.8l60.2-22.2c-2.3-5-5.8-9.4-10.2-13.2c-4.3-3.8-10.2-5.8-17.5-5.8c-9.5,0-17.3,3.3-23.5,10
	C304.3,277.4,301.2,285.9,301.2,296.2z"/>
</svg>
